<svg width="30" height="31" viewBox="0 0 30 31" fill="none" xmlns="http://www.w3.org/2000/svg">
<g id="Social Icons" clip-path="url(#clip0_344_1503)">
<path id="c" d="M30 15.1598C30 6.87559 23.2842 0.15979 15 0.15979C6.7158 0.15979 0 6.87559 0 15.1598C0 22.1942 4.8432 28.097 11.3766 29.7182V19.7438H8.2836V15.1598H11.3766V13.1846C11.3766 8.07919 13.6872 5.71279 18.6996 5.71279C19.65 5.71279 21.2898 5.89939 21.9606 6.08539V10.2404C21.6066 10.2032 20.9916 10.1846 20.2278 10.1846C17.7684 10.1846 16.818 11.1164 16.818 13.5386V15.1598H21.7176L20.8758 19.7438H16.818V30.05C24.2454 29.153 30.0006 22.829 30.0006 15.1598H30Z" fill="#0866FF"/>
<path id="d" d="M20.8754 19.7438L21.7172 15.1598H16.8176V13.5386C16.8176 11.1164 17.768 10.1846 20.2274 10.1846C20.9912 10.1846 21.6062 10.2032 21.9602 10.2404V6.08538C21.2894 5.89878 19.6496 5.71278 18.6992 5.71278C13.6868 5.71278 11.3762 8.07918 11.3762 13.1846V15.1598H8.2832V19.7438H11.3762V29.7182C12.5366 30.0062 13.7504 30.1598 14.9996 30.1598C15.6146 30.1598 16.2212 30.122 16.817 30.05V19.7438H20.8748H20.8754Z" fill="white"/>
</g>
<defs>
<clipPath id="clip0_344_1503">
<rect width="30" height="30" fill="white" transform="translate(0 0.15979)"/>
</clipPath>
</defs>
</svg>
