<svg width="30" height="31" viewBox="0 0 30 31" fill="none" xmlns="http://www.w3.org/2000/svg">
<g id="Social Icons" clip-path="url(#clip0_344_1505)">
<path id="Vector" d="M15 2.86096C19.0078 2.86096 19.4824 2.87854 21.0586 2.94885C22.5234 3.01331 23.3145 3.2594 23.8418 3.46448C24.5391 3.73401 25.043 4.06213 25.5645 4.58362C26.0918 5.11096 26.4141 5.60901 26.6836 6.30627C26.8887 6.83362 27.1348 7.63049 27.1992 9.08948C27.2695 10.6715 27.2871 11.1461 27.2871 15.1481C27.2871 19.1559 27.2695 19.6305 27.1992 21.2067C27.1348 22.6715 26.8887 23.4625 26.6836 23.9899C26.4141 24.6871 26.0859 25.191 25.5645 25.7125C25.0371 26.2399 24.5391 26.5621 23.8418 26.8317C23.3145 27.0367 22.5176 27.2828 21.0586 27.3473C19.4766 27.4176 19.002 27.4352 15 27.4352C10.9922 27.4352 10.5176 27.4176 8.94141 27.3473C7.47656 27.2828 6.68555 27.0367 6.1582 26.8317C5.46094 26.5621 4.95703 26.234 4.43555 25.7125C3.9082 25.1852 3.58594 24.6871 3.31641 23.9899C3.11133 23.4625 2.86523 22.6657 2.80078 21.2067C2.73047 19.6246 2.71289 19.15 2.71289 15.1481C2.71289 11.1403 2.73047 10.6656 2.80078 9.08948C2.86523 7.62463 3.11133 6.83362 3.31641 6.30627C3.58594 5.60901 3.91406 5.1051 4.43555 4.58362C4.96289 4.05627 5.46094 3.73401 6.1582 3.46448C6.68555 3.2594 7.48242 3.01331 8.94141 2.94885C10.5176 2.87854 10.9922 2.86096 15 2.86096ZM15 0.15979C10.9277 0.15979 10.418 0.177368 8.81836 0.247681C7.22461 0.317993 6.12891 0.575806 5.17969 0.944946C4.18945 1.33166 3.35156 1.84143 2.51953 2.67932C1.68164 3.51135 1.17188 4.34924 0.785156 5.33362C0.416016 6.2887 0.158203 7.37854 0.0878906 8.97229C0.0175781 10.5778 0 11.0875 0 15.1598C0 19.2321 0.0175781 19.7418 0.0878906 21.3414C0.158203 22.9352 0.416016 24.0309 0.785156 24.9801C1.17188 25.9703 1.68164 26.8082 2.51953 27.6403C3.35156 28.4723 4.18945 28.9879 5.17383 29.3688C6.12891 29.7379 7.21875 29.9957 8.8125 30.066C10.4121 30.1364 10.9219 30.1539 14.9941 30.1539C19.0664 30.1539 19.5762 30.1364 21.1758 30.066C22.7695 29.9957 23.8652 29.7379 24.8145 29.3688C25.7988 28.9879 26.6367 28.4723 27.4688 27.6403C28.3008 26.8082 28.8164 25.9703 29.1973 24.986C29.5664 24.0309 29.8242 22.941 29.8945 21.3473C29.9648 19.7477 29.9824 19.2379 29.9824 15.1657C29.9824 11.0934 29.9648 10.5836 29.8945 8.98401C29.8242 7.39026 29.5664 6.29456 29.1973 5.34534C28.8281 4.34924 28.3184 3.51135 27.4805 2.67932C26.6484 1.84729 25.8105 1.33167 24.8262 0.950806C23.8711 0.581665 22.7813 0.323853 21.1875 0.25354C19.582 0.177368 19.0723 0.15979 15 0.15979Z" fill="#000100"/>
<path id="Vector_2" d="M15 7.45471C10.7461 7.45471 7.29492 10.9059 7.29492 15.1598C7.29492 19.4137 10.7461 22.8649 15 22.8649C19.2539 22.8649 22.7051 19.4137 22.7051 15.1598C22.7051 10.9059 19.2539 7.45471 15 7.45471ZM15 20.1578C12.2402 20.1578 10.002 17.9196 10.002 15.1598C10.002 12.4 12.2402 10.1617 15 10.1617C17.7598 10.1617 19.998 12.4 19.998 15.1598C19.998 17.9196 17.7598 20.1578 15 20.1578Z" fill="#000100"/>
<path id="Vector_3" d="M24.8086 7.15004C24.8086 8.14614 24 8.94887 23.0098 8.94887C22.0137 8.94887 21.2109 8.14028 21.2109 7.15004C21.2109 6.15395 22.0195 5.35121 23.0098 5.35121C24 5.35121 24.8086 6.15981 24.8086 7.15004Z" fill="#000100"/>
</g>
<defs>
<clipPath id="clip0_344_1505">
<rect width="30" height="30" fill="white" transform="translate(0 0.15979)"/>
</clipPath>
</defs>
</svg>
