<svg width="30" height="31" viewBox="0 0 30 31" fill="none" xmlns="http://www.w3.org/2000/svg">
<g id="Social Icons" clip-path="url(#clip0_344_1506)">
<g id="Group 1">
<path id="Vector" d="M15 0.15979C6.71602 0.15979 0 6.87581 0 15.1598C0 19.3024 1.6793 23.0524 4.39336 25.7664L1.53633 28.6235C0.969141 29.1906 1.37109 30.1598 2.17266 30.1598H15C23.284 30.1598 30 23.4438 30 15.1598C30 6.87581 23.284 0.15979 15 0.15979Z" fill="#FF4500"/>
<path id="Vector_2" d="M23.5027 18.1527C25.4372 18.1527 27.0055 16.5845 27.0055 14.65C27.0055 12.7155 25.4372 11.1473 23.5027 11.1473C21.5682 11.1473 20 12.7155 20 14.65C20 16.5845 21.5682 18.1527 23.5027 18.1527Z" fill="url(#paint0_radial_344_1506)"/>
<path id="Vector_3" d="M6.49688 18.1527C8.43138 18.1527 9.99961 16.5845 9.99961 14.65C9.99961 12.7155 8.43138 11.1473 6.49688 11.1473C4.56237 11.1473 2.99414 12.7155 2.99414 14.65C2.99414 16.5845 4.56237 18.1527 6.49688 18.1527Z" fill="url(#paint1_radial_344_1506)"/>
<path id="Vector_4" d="M15.0084 25.1594C20.531 25.1594 25.008 21.8015 25.008 17.6594C25.008 13.5173 20.531 10.1594 15.0084 10.1594C9.48577 10.1594 5.00879 13.5173 5.00879 17.6594C5.00879 21.8015 9.48577 25.1594 15.0084 25.1594Z" fill="url(#paint2_radial_344_1506)"/>
<path id="Vector_5" d="M12.0518 16.9305C11.9933 18.2008 11.1495 18.6625 10.1686 18.6625C9.18778 18.6625 8.43778 18.0121 8.49638 16.7418C8.55497 15.4715 9.39872 14.6301 10.3796 14.6301C11.3604 14.6301 12.1104 15.6602 12.0518 16.9305Z" fill="#842123"/>
<path id="Vector_6" d="M21.5206 16.7407C21.5792 18.011 20.8304 18.6614 19.8483 18.6614C18.8663 18.6614 18.0226 18.2008 17.9651 16.9293C17.9065 15.659 18.6554 14.6289 19.6374 14.6289C20.6194 14.6289 21.4632 15.4692 21.5206 16.7407Z" fill="#842123"/>
<path id="Vector_7" d="M17.965 17.0406C18.02 18.2301 18.8087 18.6613 19.7275 18.6613C20.6462 18.6613 21.347 18.0156 21.2919 16.8262C21.2368 15.6367 20.4482 14.8586 19.5294 14.8586C18.6107 14.8586 17.9099 15.8512 17.965 17.0406Z" fill="url(#paint3_radial_344_1506)"/>
<path id="Vector_8" d="M12.0526 17.0406C11.9976 18.2301 11.2089 18.6613 10.2901 18.6613C9.3714 18.6613 8.67061 18.0156 8.72569 16.8262C8.78077 15.6367 9.56944 14.8586 10.4882 14.8586C11.4069 14.8586 12.1077 15.8512 12.0526 17.0406Z" fill="url(#paint4_radial_344_1506)"/>
<path id="Vector_9" d="M15.0079 19.5098C13.768 19.5098 12.5797 19.5695 11.4805 19.6785C11.293 19.6973 11.1735 19.8883 11.2461 20.0594C11.8614 21.502 13.3133 22.5156 15.0079 22.5156C16.7024 22.5156 18.1532 21.502 18.7696 20.0594C18.8422 19.8883 18.7239 19.6973 18.5352 19.6785C17.436 19.5695 16.2477 19.5098 15.0079 19.5098Z" fill="#BBCFDA"/>
<path id="Vector_10" d="M15.008 19.7852C13.7717 19.7852 12.5869 19.8461 11.4912 19.9575C11.3037 19.9762 11.1853 20.1707 11.258 20.3442C11.872 21.8102 13.3193 22.8391 15.0068 22.8391C16.6943 22.8391 18.1427 21.809 18.7568 20.3442C18.8295 20.1707 18.7111 19.9762 18.5236 19.9575C17.4279 19.8461 16.2431 19.7852 15.0068 19.7852H15.008Z" fill="white"/>
<path id="Vector_11" d="M15.0085 19.6422C13.7921 19.6422 12.6261 19.702 11.5468 19.811C11.3628 19.8297 11.2456 20.0207 11.3171 20.1918C11.9206 21.6344 13.3456 22.6481 15.0085 22.6481C16.6714 22.6481 18.0953 21.6344 18.6999 20.1918C18.7714 20.0207 18.6542 19.8297 18.4703 19.811C17.3921 19.702 16.2261 19.6422 15.0085 19.6422Z" fill="url(#paint5_radial_344_1506)"/>
<path id="Vector_12" d="M20.4859 9.13987C21.8567 9.13987 22.968 8.02863 22.968 6.65784C22.968 5.28706 21.8567 4.17581 20.4859 4.17581C19.1151 4.17581 18.0039 5.28706 18.0039 6.65784C18.0039 8.02863 19.1151 9.13987 20.4859 9.13987Z" fill="url(#paint6_radial_344_1506)"/>
<path id="Vector_13" d="M14.9734 10.4758C14.6758 10.4758 14.4355 10.3516 14.4355 10.1594C14.4355 7.93517 16.2449 6.12697 18.468 6.12697C18.7656 6.12697 19.0059 6.36837 19.0059 6.66486C19.0059 6.96134 18.7645 7.20275 18.468 7.20275C16.8379 7.20275 15.5113 8.52931 15.5113 10.1594C15.5113 10.3516 15.2699 10.4758 14.9734 10.4758Z" fill="url(#paint7_radial_344_1506)"/>
<path id="Vector_14" d="M11.3986 17.6289C11.3986 18.0895 10.9088 18.2957 10.3053 18.2957C9.70176 18.2957 9.21191 18.0895 9.21191 17.6289C9.21191 17.1684 9.70176 16.7957 10.3053 16.7957C10.9088 16.7957 11.3986 17.1684 11.3986 17.6289Z" fill="#FF6101"/>
<path id="Vector_15" d="M20.8059 17.6289C20.8059 18.0895 20.316 18.2957 19.7125 18.2957C19.109 18.2957 18.6191 18.0895 18.6191 17.6289C18.6191 17.1684 19.109 16.7957 19.7125 16.7957C20.316 16.7957 20.8059 17.1684 20.8059 17.6289Z" fill="#FF6101"/>
<path id="Vector_16" d="M11.06 16.3797C11.2748 16.3797 11.449 16.1898 11.449 15.9555C11.449 15.7212 11.2748 15.5313 11.06 15.5313C10.8451 15.5313 10.6709 15.7212 10.6709 15.9555C10.6709 16.1898 10.8451 16.3797 11.06 16.3797Z" fill="#FFC49C"/>
<path id="Vector_17" d="M20.307 16.3797C20.5219 16.3797 20.6961 16.1898 20.6961 15.9555C20.6961 15.7212 20.5219 15.5313 20.307 15.5313C20.0922 15.5313 19.918 15.7212 19.918 15.9555C19.918 16.1898 20.0922 16.3797 20.307 16.3797Z" fill="#FFC49C"/>
</g>
</g>
<defs>
<radialGradient id="paint0_radial_344_1506" cx="0" cy="0" r="1" gradientUnits="userSpaceOnUse" gradientTransform="translate(23.5557 12.7642) scale(7.01971 6.12357)">
<stop stop-color="#FEFFFF"/>
<stop offset="0.4" stop-color="#FEFFFF"/>
<stop offset="0.51" stop-color="#F9FCFC"/>
<stop offset="0.62" stop-color="#EDF3F5"/>
<stop offset="0.7" stop-color="#DEE9EC"/>
<stop offset="0.72" stop-color="#D8E4E8"/>
<stop offset="0.76" stop-color="#CCD8DF"/>
<stop offset="0.8" stop-color="#C8D5DD"/>
<stop offset="0.83" stop-color="#CCD6DE"/>
<stop offset="0.85" stop-color="#D8DBE2"/>
<stop offset="0.88" stop-color="#EDE3E9"/>
<stop offset="0.9" stop-color="#FFEBEF"/>
</radialGradient>
<radialGradient id="paint1_radial_344_1506" cx="0" cy="0" r="1" gradientUnits="userSpaceOnUse" gradientTransform="translate(6.54982 12.7642) scale(7.01971 6.12357)">
<stop stop-color="#FEFFFF"/>
<stop offset="0.4" stop-color="#FEFFFF"/>
<stop offset="0.51" stop-color="#F9FCFC"/>
<stop offset="0.62" stop-color="#EDF3F5"/>
<stop offset="0.7" stop-color="#DEE9EC"/>
<stop offset="0.72" stop-color="#D8E4E8"/>
<stop offset="0.76" stop-color="#CCD8DF"/>
<stop offset="0.8" stop-color="#C8D5DD"/>
<stop offset="0.83" stop-color="#CCD6DE"/>
<stop offset="0.85" stop-color="#D8DBE2"/>
<stop offset="0.88" stop-color="#EDE3E9"/>
<stop offset="0.9" stop-color="#FFEBEF"/>
</radialGradient>
<radialGradient id="paint2_radial_344_1506" cx="0" cy="0" r="1" gradientUnits="userSpaceOnUse" gradientTransform="translate(15.2753 11.782) scale(21.1742 14.867)">
<stop stop-color="#FEFFFF"/>
<stop offset="0.4" stop-color="#FEFFFF"/>
<stop offset="0.51" stop-color="#F9FCFC"/>
<stop offset="0.62" stop-color="#EDF3F5"/>
<stop offset="0.7" stop-color="#DEE9EC"/>
<stop offset="0.72" stop-color="#D8E4E8"/>
<stop offset="0.76" stop-color="#CCD8DF"/>
<stop offset="0.8" stop-color="#C8D5DD"/>
<stop offset="0.83" stop-color="#CCD6DE"/>
<stop offset="0.85" stop-color="#D8DBE2"/>
<stop offset="0.88" stop-color="#EDE3E9"/>
<stop offset="0.9" stop-color="#FFEBEF"/>
</radialGradient>
<radialGradient id="paint3_radial_344_1506" cx="0" cy="0" r="1" gradientUnits="userSpaceOnUse" gradientTransform="translate(19.3688 17.8517) rotate(-180) scale(1.76911 2.5972)">
<stop stop-color="#FF6600"/>
<stop offset="0.5" stop-color="#FF4500"/>
<stop offset="0.7" stop-color="#FC4301"/>
<stop offset="0.82" stop-color="#F43F07"/>
<stop offset="0.92" stop-color="#E53812"/>
<stop offset="1" stop-color="#D4301F"/>
</radialGradient>
<radialGradient id="paint4_radial_344_1506" cx="0" cy="0" r="1" gradientUnits="userSpaceOnUse" gradientTransform="translate(10.5691 17.8517) scale(1.76911 2.5972)">
<stop stop-color="#FF6600"/>
<stop offset="0.5" stop-color="#FF4500"/>
<stop offset="0.7" stop-color="#FC4301"/>
<stop offset="0.82" stop-color="#F43F07"/>
<stop offset="0.92" stop-color="#E53812"/>
<stop offset="1" stop-color="#D4301F"/>
</radialGradient>
<radialGradient id="paint5_radial_344_1506" cx="0" cy="0" r="1" gradientUnits="userSpaceOnUse" gradientTransform="translate(15.0435 23.0005) scale(6.23815 4.11452)">
<stop stop-color="#172E35"/>
<stop offset="0.29" stop-color="#0E1C21"/>
<stop offset="0.73" stop-color="#030708"/>
<stop offset="1"/>
</radialGradient>
<radialGradient id="paint6_radial_344_1506" cx="0" cy="0" r="1" gradientUnits="userSpaceOnUse" gradientTransform="translate(20.5448 4.1566) scale(5.47587)">
<stop stop-color="#FEFFFF"/>
<stop offset="0.4" stop-color="#FEFFFF"/>
<stop offset="0.51" stop-color="#F9FCFC"/>
<stop offset="0.62" stop-color="#EDF3F5"/>
<stop offset="0.7" stop-color="#DEE9EC"/>
<stop offset="0.72" stop-color="#D8E4E8"/>
<stop offset="0.76" stop-color="#CCD8DF"/>
<stop offset="0.8" stop-color="#C8D5DD"/>
<stop offset="0.83" stop-color="#CCD6DE"/>
<stop offset="0.85" stop-color="#D8DBE2"/>
<stop offset="0.88" stop-color="#EDE3E9"/>
<stop offset="0.9" stop-color="#FFEBEF"/>
</radialGradient>
<radialGradient id="paint7_radial_344_1506" cx="0" cy="0" r="1" gradientUnits="userSpaceOnUse" gradientTransform="translate(18.2629 10.1261) scale(4.48832)">
<stop offset="0.48" stop-color="#7A9299"/>
<stop offset="0.67" stop-color="#172E35"/>
<stop offset="0.75"/>
<stop offset="0.82" stop-color="#172E35"/>
</radialGradient>
<clipPath id="clip0_344_1506">
<rect width="30" height="30" fill="white" transform="translate(0 0.15979)"/>
</clipPath>
</defs>
</svg>
