<svg width="30" height="31" viewBox="0 0 30 31" fill="none" xmlns="http://www.w3.org/2000/svg">
<g id="Social Icons">
<path id="Vector" d="M21.4705 10.9891C23.3997 12.3731 25.763 13.1874 28.3156 13.1874V8.25807C27.8325 8.25817 27.3507 8.20762 26.8781 8.10713V11.9872C24.3257 11.9872 21.9627 11.1729 20.033 9.78906V19.8484C20.033 24.8806 15.9681 28.9597 10.9541 28.9597C9.08326 28.9597 7.34438 28.3921 5.8999 27.4186C7.54854 29.1103 9.8477 30.1598 12.3913 30.1598C17.4056 30.1598 21.4707 26.0807 21.4707 21.0483V10.9891H21.4705V10.9891ZM23.2438 6.01605C22.2579 4.93509 21.6106 3.53815 21.4705 1.99377V1.35976H20.1083C20.4512 3.32266 21.6207 4.99964 23.2438 6.01605ZM9.07126 23.5571C8.52042 22.8322 8.22274 21.9456 8.22408 21.0339C8.22408 18.7323 10.0833 16.8662 12.3772 16.8662C12.8046 16.8661 13.2296 16.9318 13.637 17.0615V12.022C13.1609 11.9565 12.6804 11.9287 12.2001 11.9389V15.8614C11.7924 15.7317 11.3672 15.6658 10.9396 15.6662C8.64582 15.6662 6.78667 17.5321 6.78667 19.834C6.78667 21.4615 7.71599 22.8706 9.07126 23.5571Z" fill="#FF004F"/>
<path id="Vector_2" d="M20.0332 9.78896C21.9629 11.1728 24.3259 11.9871 26.8783 11.9871V8.10703C25.4536 7.80248 24.1923 7.05531 23.244 6.01605C21.6208 4.99954 20.4514 3.32255 20.1085 1.35976H16.5302V21.0481C16.5221 23.3433 14.666 25.2018 12.3771 25.2018C11.0283 25.2018 9.83005 24.5566 9.07115 23.5571C7.71598 22.8706 6.78666 21.4614 6.78666 19.8341C6.78666 17.5325 8.64582 15.6663 10.9396 15.6663C11.3791 15.6663 11.8027 15.735 12.2001 15.8615V11.939C7.27414 12.0412 3.3125 16.0804 3.3125 21.0482C3.3125 23.528 4.29904 25.7761 5.9002 27.4187C7.34468 28.3921 9.08356 28.9598 10.9544 28.9598C15.9685 28.9598 20.0333 24.8805 20.0333 19.8484V9.78896H20.0332Z" fill="black"/>
<path id="Vector_3" d="M26.8782 8.10704V7.0579C25.5934 7.05985 24.3339 6.69878 23.2439 6.01596C24.2088 7.07612 25.4794 7.80712 26.8782 8.10704ZM20.1084 1.35977C20.0757 1.17218 20.0505 0.983354 20.0331 0.793807V0.15979H15.0925V19.8483C15.0846 22.1432 13.2287 24.0017 10.9395 24.0017C10.2675 24.0017 9.63298 23.8416 9.07106 23.5572C9.82996 24.5566 11.0282 25.2017 12.3771 25.2017C14.6658 25.2017 16.5221 23.3434 16.5301 21.0482V1.35977H20.1084ZM12.2002 11.939V10.8222C11.7873 10.7655 11.3711 10.7371 10.9544 10.7373C5.93989 10.7372 1.875 14.8165 1.875 19.8483C1.875 23.0029 3.47258 25.7831 5.90021 27.4185C4.29905 25.776 3.31251 23.5278 3.31251 21.0481C3.31251 16.0804 7.27404 12.0412 12.2002 11.939Z" fill="#00F2EA"/>
</g>
</svg>
