<svg xmlns="http://www.w3.org/2000/svg" version="1.1" xmlns:xlink="http://www.w3.org/1999/xlink" xmlns:svgjs="http://svgjs.dev/svgjs" width="1500" height="1500" viewBox="0 0 1500 1500"><rect width="1500" height="1500" fill="#000000"></rect><g transform="matrix(0.6666666666666666,0,0,0.6666666666666666,250,187.66704311759258)"><svg viewBox="0 0 320 360" data-background-color="#ffffff" preserveAspectRatio="xMidYMid meet" height="1687" width="1500" xmlns="http://www.w3.org/2000/svg" xmlns:xlink="http://www.w3.org/1999/xlink"><g id="tight-bounds" transform="matrix(1,0,0,1,0,-0.00012049999997998384)"><svg viewBox="0 0 320 360" height="360" width="320"><g><svg></svg></g><g><svg viewBox="0 0 320 360" height="360" width="320"><g><path transform="translate(-76.07486,-56.3133) scale(4.7215,4.7215)" d="M24.473 37.513l0.604-1.109c4.807-8.829 14.163-14.821 24.923-14.82 10.763 0 20.122 5.995 24.928 14.827l0.604 1.11 1.731-6.637 6.572 1.686-0.562-1.015c-6.478-11.702-18.949-19.628-33.273-19.628-14.324 0-26.794 7.926-33.274 19.628l-0.562 1.014 6.579-1.685zM50 12.927c13.521 0 25.324 7.262 31.785 18.085l-5.238-1.343-1.359 5.212c-5.129-8.559-14.483-14.297-25.188-14.297-10.701 0-20.053 5.735-25.182 14.289l-1.358-5.205-5.245 1.343c6.461-10.823 18.265-18.084 31.785-18.084zM75.527 62.587l-0.604 1.109c-4.807 8.83-14.163 14.821-24.923 14.821-10.763 0-20.122-5.994-24.928-14.827l-0.604-1.109-1.731 6.636-6.573-1.686 0.562 1.015c6.479 11.701 18.949 19.628 33.274 19.628 14.324 0 26.795-7.927 33.274-19.628l0.562-1.014-6.579 1.685zM50 87.174c-13.521 0-25.324-7.262-31.785-18.085l5.237 1.344 1.36-5.212c5.129 8.557 14.483 14.296 25.188 14.296 10.702 0 20.053-5.735 25.183-14.29l1.357 5.205 5.245-1.343c-6.461 10.822-18.264 18.085-31.785 18.085z" fill="#ffffff" fill-rule="nonzero" stroke="none" stroke-width="1" stroke-linecap="butt" stroke-linejoin="miter" stroke-miterlimit="10" stroke-dasharray="" stroke-dashoffset="0" font-family="none" font-weight="none" font-size="none" text-anchor="none" style="mix-blend-mode: normal" data-fill-palette-color="tertiary"></path></g><g transform="matrix(1,0,0,1,64,153.71286809715932)"><svg viewBox="0 0 192 52.57426380568136" height="52.57426380568136" width="192"><g><svg viewBox="0 0 192 52.57426380568136" height="52.57426380568136" width="192"><g transform="matrix(1,0,0,1,0,37.200035728283254)"><svg viewBox="0 0 192 15.374228077398106" height="15.374228077398106" width="192"><g id="textblocktransform"><svg viewBox="0 0 192 15.374228077398106" height="15.374228077398106" width="192" id="textblock"><g><svg viewBox="0 0 192 15.374228077398106" height="15.374228077398106" width="192"><g transform="matrix(1,0,0,1,0,0)"><svg width="192" viewBox="1.98 -37.5 474.37 37.99" height="15.374228077398106" data-palette-color="#25476a"><path d="M9.35-9.2L21.22-9.2 24.02 0 28.52 0 17.24-35.55 13.45-35.55 1.98 0 6.49 0 9.35-9.2ZM20.02-13.13L10.57-13.13 15.33-28.56 20.02-13.13ZM44.99-17.77L39.21-35.55 33.62-35.55 33.62 0 38.01 0 38.01-14.18 37.64-28.52 43.67-9.89 46.26-9.89 52.83-29.03 52.46-14.18 52.46 0 56.86 0 56.86-35.55 51.24-35.55 44.99-17.77ZM78.46-26.42L64.96-26.42 64.96-22.49 73.95-22.49 73.95-3.91 64.96-3.91 64.96 0 87.08 0 87.08-3.91 78.46-3.91 78.46-26.42ZM73.36-33.35L73.36-33.35Q73.36-32.25 74.03-31.52 74.7-30.79 76.07-30.79L76.07-30.79Q77.41-30.79 78.1-31.52 78.78-32.25 78.78-33.35L78.78-33.35Q78.78-33.96 78.58-34.47 78.39-34.99 78-35.33L78-35.33Q77.68-35.64 77.19-35.83 76.7-36.01 76.07-36.01L76.07-36.01Q75.43-36.01 74.93-35.83 74.43-35.64 74.12-35.33L74.12-35.33Q73.73-34.96 73.54-34.45 73.36-33.94 73.36-33.35ZM94.26-26.42L94.26 0 98.77 0 98.77-18.95Q99.24-19.8 99.86-20.51 100.48-21.22 101.21-21.75L101.21-21.75Q102.12-22.36 103.19-22.72 104.26-23.07 105.51-23.07L105.51-23.07Q106.95-23.07 108.06-22.73 109.17-22.39 109.95-21.63L109.95-21.63Q110.71-20.87 111.1-19.65 111.49-18.43 111.49-16.67L111.49-16.67 111.49 0 116.01 0 116.01-16.77Q116.01-19.41 115.36-21.33 114.71-23.24 113.52-24.49L113.52-24.49Q112.32-25.73 110.62-26.32 108.93-26.9 106.85-26.9L106.85-26.9Q105.31-26.88 103.94-26.45 102.56-26.03 101.38-25.24L101.38-25.24Q100.6-24.73 99.91-24.04 99.21-23.34 98.63-22.51L98.63-22.51 98.31-26.42 94.26-26.42ZM128.77-22.49L128.77-22.49 128.77-37.5 124.26-37.5 124.26 0 128.77 0 128.77-19.19Q129.26-19.97 129.89-20.62 130.51-21.26 131.24-21.75L131.24-21.75Q132.17-22.39 133.27-22.73 134.37-23.07 135.59-23.07L135.59-23.07Q137.07-23.1 138.22-22.67 139.37-22.24 140.13-21.39L140.13-21.39Q140.83-20.61 141.2-19.42 141.57-18.24 141.57-16.67L141.57-16.67 141.57 0 146.08 0 146.08-16.63Q146.08-19.29 145.44-21.23 144.79-23.17 143.59-24.44L143.59-24.44Q142.4-25.71 140.7-26.31 139-26.9 136.93-26.9L136.93-26.9Q135.34-26.88 133.94-26.44 132.53-26 131.36-25.15L131.36-25.15Q130.63-24.63 129.97-23.96 129.31-23.29 128.77-22.49ZM171.62 0L171.62 0 176.33 0 176.33-0.39Q175.89-1.49 175.65-2.97 175.4-4.44 175.4-5.76L175.4-5.76 175.4-18.04Q175.4-20.26 174.6-21.92 173.79-23.58 172.4-24.71L172.4-24.71Q170.98-25.81 169.05-26.35 167.13-26.9 164.88-26.9L164.88-26.9Q162.41-26.9 160.47-26.22 158.53-25.54 157.19-24.44L157.19-24.44Q155.82-23.32 155.1-21.92 154.38-20.53 154.36-19.09L154.36-19.09 158.9-19.09Q158.9-19.92 159.3-20.69 159.7-21.46 160.44-22.02L160.44-22.02Q161.17-22.58 162.23-22.92 163.29-23.27 164.64-23.27L164.64-23.27Q166.08-23.27 167.24-22.9 168.4-22.53 169.2-21.88L169.2-21.88Q170.01-21.19 170.45-20.24 170.89-19.29 170.89-18.09L170.89-18.09 170.89-16.02 165.95-16.02Q163.2-16.02 160.96-15.48 158.73-14.94 157.14-13.87L157.14-13.87Q155.55-12.77 154.69-11.13 153.82-9.5 153.82-7.32L153.82-7.32Q153.82-5.66 154.47-4.24 155.11-2.81 156.31-1.78L156.31-1.78Q157.48-0.73 159.18-0.12 160.88 0.49 162.98 0.49L162.98 0.49Q164.27 0.49 165.42 0.22 166.56-0.05 167.59-0.51L167.59-0.51Q168.59-0.98 169.43-1.59 170.28-2.2 170.96-2.88L170.96-2.88Q171.03-2.05 171.19-1.28 171.35-0.51 171.62 0ZM163.63-3.44L163.63-3.44Q162.32-3.44 161.32-3.78 160.31-4.13 159.66-4.74L159.66-4.74Q159-5.32 158.67-6.15 158.34-6.98 158.34-7.96L158.34-7.96Q158.34-8.98 158.72-9.79 159.09-10.6 159.83-11.18L159.83-11.18Q160.85-12.01 162.6-12.41 164.34-12.82 166.69-12.82L166.69-12.82 170.89-12.82 170.89-7.47Q170.5-6.69 169.81-5.97 169.13-5.25 168.2-4.69L168.2-4.69Q167.25-4.13 166.1-3.78 164.95-3.44 163.63-3.44ZM184.21-35.55L184.21 0 195.59 0Q197.86-0.02 200-0.71 202.13-1.39 203.77-2.69L203.77-2.69Q205.4-3.96 206.38-5.86 207.36-7.76 207.33-10.25L207.33-10.25Q207.33-11.84 206.86-13.21 206.38-14.58 205.53-15.67L205.53-15.67Q204.72-16.67 203.48-17.5 202.23-18.33 200.89-18.65L200.89-18.65 200.89-18.73Q202.18-19.29 203.1-19.92 204.01-20.56 204.77-21.48L204.77-21.48Q205.5-22.39 205.93-23.54 206.36-24.68 206.38-26.07L206.38-26.07Q206.41-28.56 205.43-30.35 204.45-32.13 202.82-33.28L202.82-33.28Q201.18-34.42 199.08-34.97 196.98-35.52 194.78-35.55L194.78-35.55 184.21-35.55ZM188.75-3.83L188.75-16.63 195.96-16.63Q197.4-16.58 198.64-16.14 199.89-15.7 200.82-14.89L200.82-14.89Q201.74-14.06 202.27-12.89 202.79-11.72 202.77-10.21L202.77-10.21Q202.77-8.72 202.19-7.54 201.62-6.37 200.64-5.57L200.64-5.57Q199.67-4.76 198.4-4.31 197.13-3.86 195.71-3.83L195.71-3.83 188.75-3.83ZM195.05-20.39L188.75-20.39 188.75-31.69 194.93-31.69Q196.25-31.67 197.51-31.35 198.76-31.03 199.74-30.37L199.74-30.37Q200.69-29.69 201.27-28.64 201.84-27.59 201.84-26.1L201.84-26.1Q201.84-24.71 201.25-23.66 200.67-22.61 199.72-21.9L199.72-21.9Q198.76-21.17 197.54-20.79 196.32-20.41 195.05-20.39L195.05-20.39ZM228.47-26.42L214.97-26.42 214.97-22.49 223.96-22.49 223.96-3.91 214.97-3.91 214.97 0 237.09 0 237.09-3.91 228.47-3.91 228.47-26.42ZM223.37-33.35L223.37-33.35Q223.37-32.25 224.04-31.52 224.71-30.79 226.08-30.79L226.08-30.79Q227.42-30.79 228.11-31.52 228.79-32.25 228.79-33.35L228.79-33.35Q228.79-33.96 228.6-34.47 228.4-34.99 228.01-35.33L228.01-35.33Q227.69-35.64 227.2-35.83 226.72-36.01 226.08-36.01L226.08-36.01Q225.45-36.01 224.95-35.83 224.45-35.64 224.13-35.33L224.13-35.33Q223.74-34.96 223.55-34.45 223.37-33.94 223.37-33.35ZM266.65-12.92L266.65-12.92 266.65-13.43Q266.65-15.5 266.31-17.37 265.97-19.24 265.31-20.78L265.31-20.78Q264.68-22.14 263.85-23.25 263.02-24.37 261.97-25.15L261.97-25.15Q260.8-25.98 259.36-26.44 257.91-26.9 256.21-26.9L256.21-26.9Q254.84-26.9 253.67-26.64 252.49-26.37 251.52-25.85L251.52-25.85Q250.74-25.44 250.05-24.87 249.37-24.29 248.81-23.58L248.81-23.58 248.81-37.5 244.29-37.5 244.29 0 248.44 0 248.66-3Q249.1-2.44 249.59-1.98 250.08-1.51 250.61-1.12L250.61-1.12Q251.74-0.34 253.14 0.07 254.55 0.49 256.25 0.49L256.25 0.49Q257.74 0.49 259.03 0.12 260.31-0.24 261.38-0.9L261.38-0.9Q262.87-1.86 263.93-3.31 264.99-4.76 265.65-6.59L265.65-6.59Q266.14-7.98 266.4-9.58 266.65-11.18 266.65-12.92ZM262.14-13.43L262.14-13.43 262.14-12.92Q262.14-11.74 261.99-10.62 261.85-9.5 261.53-8.52L261.53-8.52Q261.14-7.23 260.48-6.18 259.82-5.13 258.84-4.44L258.84-4.44Q258.11-3.91 257.18-3.63 256.25-3.34 255.13-3.34L255.13-3.34Q253.96-3.34 252.98-3.65 252.01-3.96 251.23-4.52L251.23-4.52Q250.44-5.08 249.85-5.82 249.25-6.57 248.81-7.45L248.81-7.45 248.81-18.99Q249.22-19.87 249.82-20.62 250.42-21.36 251.2-21.92L251.2-21.92Q251.96-22.46 252.93-22.77 253.91-23.07 255.08-23.07L255.08-23.07Q256.16-23.07 257.04-22.83 257.91-22.58 258.62-22.14L258.62-22.14Q259.65-21.53 260.36-20.46 261.06-19.38 261.5-18.09L261.5-18.09Q261.82-17.04 261.98-15.86 262.14-14.67 262.14-13.43ZM288.48-37.5L274.98-37.5 274.98-33.57 283.96-33.57 283.96-3.91 274.98-3.91 274.98 0 297.1 0 297.1-3.91 288.48-3.91 288.48-37.5ZM318.48-26.42L304.98-26.42 304.98-22.49 313.96-22.49 313.96-3.91 304.98-3.91 304.98 0 327.1 0 327.1-3.91 318.48-3.91 318.48-26.42ZM313.38-33.35L313.38-33.35Q313.38-32.25 314.05-31.52 314.72-30.79 316.09-30.79L316.09-30.79Q317.43-30.79 318.11-31.52 318.8-32.25 318.8-33.35L318.8-33.35Q318.8-33.96 318.6-34.47 318.41-34.99 318.02-35.33L318.02-35.33Q317.7-35.64 317.21-35.83 316.72-36.01 316.09-36.01L316.09-36.01Q315.45-36.01 314.95-35.83 314.45-35.64 314.14-35.33L314.14-35.33Q313.74-34.96 313.56-34.45 313.38-33.94 313.38-33.35ZM333-13.45L333-13.45 333-12.92Q333-10.06 333.83-7.62 334.66-5.18 336.23-3.37L336.23-3.37Q337.77-1.56 340-0.54 342.23 0.49 345.04 0.49L345.04 0.49Q347.82 0.49 350.05-0.54 352.27-1.56 353.83-3.37L353.83-3.37Q355.37-5.18 356.2-7.62 357.03-10.06 357.03-12.92L357.03-12.92 357.03-13.45Q357.03-16.31 356.2-18.76 355.37-21.22 353.83-23.02L353.83-23.02Q352.27-24.83 350.03-25.87 347.8-26.9 344.99-26.9L344.99-26.9Q342.21-26.9 339.99-25.87 337.77-24.83 336.23-23.02L336.23-23.02Q334.66-21.22 333.83-18.76 333-16.31 333-13.45ZM337.52-12.92L337.52-12.92 337.52-13.45Q337.52-15.38 337.99-17.15 338.45-18.92 339.4-20.26L339.4-20.26Q340.33-21.61 341.72-22.4 343.11-23.19 344.99-23.19L344.99-23.19Q346.87-23.19 348.28-22.4 349.68-21.61 350.63-20.26L350.63-20.26Q351.56-18.92 352.04-17.15 352.51-15.38 352.51-13.45L352.51-13.45 352.51-12.92Q352.51-10.96 352.05-9.19 351.58-7.42 350.66-6.08L350.66-6.08Q349.7-4.74 348.3-3.96 346.9-3.17 345.04-3.17L345.04-3.17Q343.16-3.17 341.74-3.96 340.33-4.74 339.4-6.08L339.4-6.08Q338.45-7.42 337.99-9.19 337.52-10.96 337.52-12.92ZM374.97-26.42L374.97-32.81 370.43-32.81 370.43-26.42 363.5-26.42 363.5-22.92 370.43-22.92 370.43-8.57Q370.43-6.13 371.08-4.41 371.72-2.69 372.85-1.61L372.85-1.61Q373.97-0.51 375.49-0.01 377.02 0.49 378.78 0.49L378.78 0.49Q379.83 0.49 380.89 0.39 381.95 0.29 382.9 0.1L382.9 0.1Q383.86-0.07 384.66-0.33 385.47-0.59 386.03-0.93L386.03-0.93 385.39-4.13Q384.98-4.03 384.33-3.89 383.69-3.76 382.95-3.64L382.95-3.64Q382.2-3.52 381.42-3.43 380.63-3.34 379.9-3.34L379.9-3.34Q378.9-3.34 378.01-3.59 377.12-3.83 376.43-4.44L376.43-4.44Q375.75-5.03 375.36-6.03 374.97-7.03 374.97-8.57L374.97-8.57 374.97-22.92 385.03-22.92 385.03-26.42 374.97-26.42ZM405.95 0.49L405.95 0.49Q409.81 0.49 412.43-1.06 415.06-2.61 416.37-4.61L416.37-4.61 413.61-6.76Q412.37-5.15 410.49-4.17 408.61-3.2 406.19-3.2L406.19-3.2Q404.36-3.2 402.85-3.88 401.33-4.57 400.26-5.76L400.26-5.76Q399.21-6.88 398.61-8.35 398.01-9.81 397.84-11.74L397.84-11.74 397.84-11.91 416.72-11.91 416.72-13.94Q416.72-16.7 416.02-19.07 415.32-21.44 413.91-23.19L413.91-23.19Q412.49-24.93 410.36-25.92 408.22-26.9 405.36-26.9L405.36-26.9Q403.09-26.9 400.93-25.98 398.77-25.05 397.09-23.32L397.09-23.32Q395.38-21.56 394.35-19.03 393.33-16.5 393.33-13.31L393.33-13.31 393.33-12.28Q393.33-9.52 394.25-7.18 395.18-4.83 396.84-3.13L396.84-3.13Q398.5-1.42 400.83-0.46 403.17 0.49 405.95 0.49ZM405.36-23.19L405.36-23.19Q407.1-23.19 408.35-22.56 409.61-21.92 410.44-20.9L410.44-20.9Q411.27-19.87 411.74-18.47 412.2-17.07 412.2-15.84L412.2-15.84 412.2-15.63 397.99-15.63Q398.26-17.46 398.93-18.86 399.6-20.26 400.58-21.24L400.58-21.24Q401.55-22.19 402.78-22.69 404-23.19 405.36-23.19ZM435.54-3.17L435.54-3.17Q433.41-3.17 431.98-4.02 430.56-4.86 429.7-6.23L429.7-6.23Q428.82-7.57 428.44-9.27 428.07-10.96 428.07-12.7L428.07-12.7 428.07-13.72Q428.07-15.43 428.44-17.11 428.82-18.8 429.7-20.17L429.7-20.17Q430.58-21.51 432.01-22.35 433.44-23.19 435.54-23.19L435.54-23.19Q436.9-23.19 438.09-22.73 439.27-22.27 440.13-21.46L440.13-21.46Q440.98-20.65 441.48-19.59 441.98-18.53 442.01-17.33L442.01-17.33 446.28-17.33Q446.28-19.34 445.47-21.09 444.67-22.85 443.25-24.15L443.25-24.15Q441.81-25.42 439.85-26.16 437.88-26.9 435.54-26.9L435.54-26.9Q432.53-26.9 430.29-25.83 428.04-24.76 426.55-22.95L426.55-22.95Q425.04-21.12 424.28-18.73 423.52-16.33 423.52-13.72L423.52-13.72 423.52-12.7Q423.52-10.06 424.28-7.68 425.04-5.3 426.55-3.49L426.55-3.49Q428.04-1.66 430.29-0.59 432.53 0.49 435.54 0.49L435.54 0.49Q437.64 0.49 439.56-0.23 441.49-0.95 442.98-2.17L442.98-2.17Q444.47-3.37 445.36-4.97 446.25-6.57 446.28-8.33L446.28-8.33 442.01-8.33Q441.98-7.23 441.43-6.29 440.88-5.35 439.98-4.66L439.98-4.66Q439.08-3.96 437.92-3.56 436.76-3.17 435.54-3.17ZM471.64 0L471.64 0 476.35 0 476.35-0.39Q475.91-1.49 475.67-2.97 475.43-4.44 475.43-5.76L475.43-5.76 475.43-18.04Q475.43-20.26 474.62-21.92 473.82-23.58 472.42-24.71L472.42-24.71Q471.01-25.81 469.08-26.35 467.15-26.9 464.9-26.9L464.9-26.9Q462.44-26.9 460.5-26.22 458.56-25.54 457.21-24.44L457.21-24.44Q455.85-23.32 455.13-21.92 454.41-20.53 454.38-19.09L454.38-19.09 458.92-19.09Q458.92-19.92 459.33-20.69 459.73-21.46 460.46-22.02L460.46-22.02Q461.19-22.58 462.25-22.92 463.32-23.27 464.66-23.27L464.66-23.27Q466.1-23.27 467.26-22.9 468.42-22.53 469.23-21.88L469.23-21.88Q470.03-21.19 470.47-20.24 470.91-19.29 470.91-18.09L470.91-18.09 470.91-16.02 465.98-16.02Q463.22-16.02 460.99-15.48 458.75-14.94 457.16-13.87L457.16-13.87Q455.58-12.77 454.71-11.13 453.84-9.5 453.84-7.32L453.84-7.32Q453.84-5.66 454.49-4.24 455.14-2.81 456.33-1.78L456.33-1.78Q457.51-0.73 459.2-0.12 460.9 0.49 463 0.49L463 0.49Q464.29 0.49 465.44 0.22 466.59-0.05 467.61-0.51L467.61-0.51Q468.61-0.98 469.46-1.59 470.3-2.2 470.98-2.88L470.98-2.88Q471.06-2.05 471.21-1.28 471.37-0.51 471.64 0ZM463.66-3.44L463.66-3.44Q462.34-3.44 461.34-3.78 460.34-4.13 459.68-4.74L459.68-4.74Q459.02-5.32 458.69-6.15 458.36-6.98 458.36-7.96L458.36-7.96Q458.36-8.98 458.74-9.79 459.12-10.6 459.85-11.18L459.85-11.18Q460.88-12.01 462.62-12.41 464.37-12.82 466.71-12.82L466.71-12.82 470.91-12.82 470.91-7.47Q470.52-6.69 469.84-5.97 469.15-5.25 468.22-4.69L468.22-4.69Q467.27-4.13 466.12-3.78 464.98-3.44 463.66-3.44Z" opacity="1" transform="matrix(1,0,0,1,0,0)" fill="#ffffff" class="wordmark-text-0" data-fill-palette-color="primary" id="text-0"></path></svg></g></svg></g></svg></g></svg></g><g transform="matrix(1,0,0,1,78.02399467706722,0)"><svg viewBox="0 0 35.95201064586555 33.57054946068342" height="33.57054946068342" width="35.95201064586555"><g><svg xmlns="http://www.w3.org/2000/svg" xmlns:xlink="http://www.w3.org/1999/xlink" version="1.1" x="0" y="0" viewBox="0 5.312 100 93.376" enable-background="new 0 0 100 100" xml:space="preserve" height="33.57054946068342" width="35.95201064586555" class="icon-icon-0" data-fill-palette-color="accent" id="icon-0"><polygon points="91.822,10.995 91.822,5.312 52.71,29.765 " fill="#ffffff" data-fill-palette-color="accent"></polygon><polygon points="52.71,31.876 52.71,98.688 100,76.418 100,9.605 " fill="#ffffff" data-fill-palette-color="accent"></polygon><polygon points="8.178,10.995 8.178,5.312 47.29,29.765 " fill="#ffffff" data-fill-palette-color="accent"></polygon><polygon points="47.29,31.876 47.29,98.688 0,76.418 0,9.605 " fill="#ffffff" data-fill-palette-color="accent"></polygon></svg></g></svg></g><g></g></svg></g></svg></g></svg></g><defs></defs></svg><rect width="320" height="360" fill="none" stroke="none" visibility="hidden"></rect></g></svg></g></svg>